<svg
   width="31.131956mm"
   height="34.266392mm"
   viewBox="0 0 31.131956 34.266392"
   version="1.1"
   id="svg1"
   xmlns="http://www.w3.org/2000/svg"
   svg="http://www.w3.org/2000/svg">
  <defs
     id="defs1" />
  <g
     id="layer1"
     transform="translate(-94.561915,-132.36976)">
    <g
       id="g18"
       transform="translate(14.208058,53.903158)">
      <path
         style="fill:#f9f9f9;stroke-width:0.0173663"
         d="m 92.074821,105.8837 c -0.0237,-0.0618 -0.0431,-0.2751 -0.0431,-0.47404 0,-0.38369 -0.0913,-0.70616 -0.22383,-0.79042 -0.15304,-0.0973 -0.9735,-0.0524 -1.49923,0.082 -0.29062,0.0743 -0.57905,0.13514 -0.64095,0.13514 -0.28409,0 -0.73607,-0.84148 -0.79152,-1.47363 -0.0295,-0.33586 -0.0112,-0.4175 0.14436,-0.64458 0.22462,-0.32792 0.1862,-0.45233 -0.21825,-0.70687 -0.33368,-0.20999 -0.5466,-0.28527 -1.16793,-0.41293 -0.39773,-0.0817 -1.21567,-0.5258 -1.61647,-0.87762 -0.22429,-0.19689 -0.23008,-0.21261 -0.11212,-0.30465 0.0813,-0.0634 0.1097,-0.14329 0.082,-0.23053 -0.0691,-0.217832 -1.8288,-1.836002 -1.99654,-1.836002 -0.11194,0 -0.14162,0.13061 -0.2384,1.04938 -0.14872,1.411782 -0.25539,1.653462 -0.72979,1.653462 -0.59912,0 -1.15461,-0.68878 -1.3624,-1.689282 -0.0402,-0.19349 -0.0331,-0.22114 0.0391,-0.15203 0.22337,0.21389 0.58284,0.0173 0.50867,-0.27823 -0.0536,-0.21359 -0.27094,-0.26369 -0.46878,-0.10807 l -0.15803,0.12431 -0.0933,-0.82345 c -0.144218,-1.2724 -0.122788,-1.50718 0.12386,-1.35658 0.115,0.0702 0.22244,0.26471 0.62351,1.12874 0.2235,0.48146 0.46419,0.68857 0.6196,0.53316 0.0577,-0.0577 0.0469,-0.17684 -0.0432,-0.47449 -0.12358,-0.40818 -0.11813,-0.67237 0.0275,-1.32999 0.0453,-0.20463 0.0994,-1.883253 0.13727,-4.256973 0.0593,-3.72122 0.1031,-4.4604 0.27656,-4.66941 0.13589,-0.16373 0.32716,-1.06381 0.46519,-2.18905 0.34769,-2.8345 0.47166,-3.43428 0.89174,-4.31448 0.23893,-0.50064 1.00819,-1.34735 1.47162,-1.6198 l 0.30769,-0.18089 1.72306,-0.004 c 1.42087,-0.004 1.87712,-0.0297 2.60148,-0.14813 0.95452,-0.15605 2.14947,-0.26036 3.68262,-0.32146 1.63695,-0.0652 3.0186,-0.16652 4.16998,-0.30569 2.370169,-0.28649 3.211819,-0.1256 3.467169,0.66277 0.0811,0.25049 0.22812,0.47427 0.49605,0.75516 0.41133,0.43123 0.44091,0.53502 0.28226,0.99025 -0.13988,0.40139 -0.28236,1.30133 -0.43755,2.76373 -0.19199,1.80913 -0.22264,1.88762 -0.80171,2.05294 -0.20277,0.0579 -0.329,0.14636 -0.41828,0.29317 -0.16846,0.277 -0.23336,0.68151 -0.13795,0.85978 0.0704,0.1315 0.11328,0.13839 0.60597,0.0973 0.48543,-0.0405 0.53633,-0.0328 0.60243,0.0907 0.054,0.10085 0.0486,0.16713 -0.0212,0.2625 -0.0869,0.11866 -0.20368,0.1277 -1.66976,0.12925 -0.866979,7.9e-4 -1.646589,0.0264 -1.732449,0.0565 -0.12807,0.045 -0.14878,0.0883 -0.11528,0.2408 0.033,0.15034 -0.002,0.22776 -0.18174,0.40433 -0.23652,0.23208 -1.28109,0.7759 -2.19163,1.141 -0.55317,0.22181 -1.13337,0.57368 -1.58601,0.96184 l -0.24411,0.20932 -0.25571,-0.17353 c -0.64918,-0.44054 -2.50032,-0.72462 -4.76316,-0.73095 -1.9879,-0.006 -3.52358,0.18339 -4.02898,0.49575 -0.25818,0.15956 -0.73537,0.84354 -0.83156,1.1919 -0.081,0.29334 -0.002,0.47329 0.23446,0.53258 0.1077,0.027 0.18282,0.10578 0.21025,0.2204 0.0658,0.27488 0.21985,0.55207 0.51196,0.92109 l 0.26702,0.33732 -0.2223,0.0455 c -0.52206,0.10677 -0.61916,0.78294 -0.14736,1.02622 0.10381,0.0535 0.44555,0.14567 0.75943,0.20474 0.70832,0.13332 1.38242,0.45244 1.98963,0.941903 0.55466,0.4471 0.91,0.55677 1.58167,0.48817 0.8641,-0.0883 1.36868,-0.22529 1.72937,-0.4697 0.18985,-0.12865 0.56283,-0.29873 0.82884,-0.37797 0.65589,-0.195373 0.72745,-0.284733 0.66855,-0.834763 -0.0305,-0.28494 -0.0216,-0.45035 0.0258,-0.47967 0.0864,-0.0534 0.74921,0.29413 0.79663,0.41771 0.0511,0.13314 0.34316,0.10241 0.42172,-0.0444 0.10615,-0.19835 0.0866,-0.25935 -0.11378,-0.3555 -0.24194,-0.11609 -0.32367,-0.50946 -0.23036,-1.1088 0.0873,-0.56101 0.25728,-0.90327 0.52491,-1.05717 0.21048,-0.12103 0.21384,-0.12061 0.41891,0.0519 0.36396,0.30625 0.86699,1.57899 1.30212,3.29448 0.22838,0.900423 0.39952,1.290523 0.83685,1.907533 0.39711,0.56028 1.22568,1.33031 1.62642,1.51153 0.59339,0.26833 0.67006,0.31551 0.69121,0.42535 0.0282,0.14629 -0.31299,0.25858 -0.79012,0.26006 -0.51886,0.002 -1.24971,0.16564 -1.68342,0.37784 -0.19873,0.0972 -0.64017,0.401332 -0.98096,0.675792 -0.364,0.29314 -0.68327,0.49907 -0.77391,0.49916 -0.0849,9e-5 -0.3019,-0.0746 -0.48233,-0.16607 -0.55002,-0.27871 -1.6302,-0.38835 -2.30173,-0.23363 -0.58792,0.13547 -0.69465,0.43274 -0.30873,0.85991 0.38069,0.42137 0.89554,0.63097 1.69133,0.68854 0.55666,0.0403 0.74575,0.0841 1.04978,0.243 l 0.37082,0.19388 -0.52469,0.0384 c -0.65311,0.0478 -0.72652,0.11298 -0.76814,0.68152 -0.0174,0.23716 -0.0477,0.53575 -0.0674,0.66354 l -0.0358,0.23234 -0.10328,-0.21323 c -0.18428,-0.38051 -0.56153,-0.34309 -0.56153,0.0557 0,0.30147 0.28673,0.5773 0.76208,0.73308 0.62675,0.20541 1.17219,0.27474 2.48133,0.3154 1.35161,0.042 1.64055,0.0744 1.60534,0.17999 -0.0668,0.20034 -1.20369,0.40758 -3.08223,0.56186 -1.19507,0.0981 -2.1861,0.22923 -2.55116,0.33744 -0.0982,0.0291 -0.15617,0.007 -0.18582,-0.07 z m -8.0911,-14.555685 c 0.12327,-0.0781 0.0569,-0.24033 -0.15528,-0.37932 -0.1988,-0.13026 -0.31067,-0.0844 -0.31067,0.1275 0,0.26571 0.23955,0.39517 0.46595,0.25182 z m 17.980939,-8.03951 c 0,-0.13266 -0.57572,-0.19449 -0.9291,-0.0998 -0.31577,0.0846 -0.13257,0.16012 0.38853,0.16012 0.29731,0 0.54057,-0.0272 0.54057,-0.0603 z"
         id="path2" />
      <path
         style="fill:#f9f9f9;stroke-width:0.0173663"
         d="m 92.064321,105.39389 c 0.008,-0.37469 -0.40988,-0.69582 -0.76055,-0.82806 -0.339637,-0.12808 -0.721168,0.0842 -1.08277,0.11589 -0.224898,0.0197 -0.481636,0.16133 -0.67571,0.046 -0.41508,-0.24667 -0.543126,-0.83748 -0.6044,-1.31642 -0.03021,-0.23613 0.07998,-0.46937 0.12499,-0.70313 0.02718,-0.14118 0.148733,-0.29219 0.0876,-0.42232 -0.198962,-0.4235 -0.820438,-0.45078 -1.23996,-0.658 -0.516277,-0.25502 -1.113523,-0.36923 -1.57042,-0.71969 -0.165972,-0.12731 -0.365907,-0.2769 -0.40035,-0.48322 -0.01168,-0.07 0.09147,-0.13008 0.0752,-0.19915 -0.211026,-0.895854 -1.14501,-2.143155 -2.0258,-1.876142 -0.421121,0.127663 -0.212258,0.854211 -0.30744,1.28384 -0.07955,0.359079 -0.007,0.781512 -0.22029,1.081142 -0.09752,0.13699 -0.266371,0.2449 -0.43409,0.257 -0.221436,0.016 -0.449729,-0.10631 -0.61588,-0.25356 -0.350451,-0.31059 -0.748136,-0.761079 -0.68705,-1.225352 0.0106,-0.08057 0.11307,-0.116742 0.17017,-0.17456 0.111063,-0.112459 0.354534,-0.178319 0.33537,-0.33521 -0.01932,-0.158175 -0.253501,-0.214218 -0.40952,-0.24663 -0.07342,-0.01525 -0.164644,0.0768 -0.223,0.0297 -0.506427,-0.408716 -0.760292,-1.702827 -0.15667,-1.94605 0.271731,-0.109491 0.37535,0.450009 0.55655,0.68021 0.25461,0.323464 0.347296,1.089531 0.74536,0.98465 0.201951,-0.05321 0.06873,-0.412658 0.0829,-0.62102 0.02209,-0.324911 -0.004,-0.651393 0.003,-0.97698 0.03275,-1.526824 0.123486,-3.051855 0.1824,-4.577893 0.05443,-1.40995 -0.0995,-2.842758 0.15807,-4.23005 0.03042,-0.163848 0.119626,-0.311806 0.16191,-0.473 0.226682,-0.864149 0.268638,-1.769351 0.48846,-2.63527 0.404295,-1.592593 0.61964,-3.315391 1.52222,-4.6884 0.17864,-0.271748 0.472751,-0.448724 0.73241,-0.64452 0.102453,-0.07725 0.200861,-0.171749 0.32398,-0.2079 0.473558,-0.139049 0.987379,0.01559 1.48065,-0.001 1.137349,-0.03824 2.271183,-0.147885 3.40642,-0.22702 1.44183,-0.100507 2.883343,-0.205629 4.32455,-0.31471 0.87862,-0.0665 1.755269,-0.162499 2.63527,-0.20714 0.981636,-0.0498 2.026279,-0.409166 2.947919,-0.0676 0.35243,0.130613 0.59074,0.471316 0.83816,0.75425 0.19625,0.224425 0.38786,0.464213 0.50429,0.73867 0.13519,0.318674 0.20023,0.67105 0.20976,1.01708 0.0298,1.08017 -0.18589,2.166088 -0.47898,3.20616 -0.14265,0.506211 -0.25734,1.06788 -0.61596,1.45258 -0.10178,0.109185 -0.30594,0.08658 -0.399,0.20329 -0.22326,0.28 -0.4572,0.741364 -0.26234,1.04182 0.11237,0.173267 0.40695,0.07062 0.61026,0.10689 0.20408,0.0364 0.61189,-0.09617 0.61189,0.11113 -10e-6,0.563945 -1.10892,0.206133 -1.66461,0.30229 -0.626822,0.108467 -1.297525,0.06125 -1.883099,0.30979 -0.573327,0.243343 -0.973577,0.78103 -1.499,1.11547 -0.719103,0.457721 -1.533194,0.753564 -2.2516,1.21238 -0.15282,0.0976 -0.254748,0.310669 -0.43542,0.32608 -0.14796,0.01262 -0.254901,-0.158564 -0.39666,-0.20279 -1.526394,-0.476202 -3.15605,-0.626058 -4.75499,-0.63238 -1.316522,-0.0052 -2.783923,-0.177062 -3.91912,0.48971 -0.381548,0.224107 -0.691298,0.637923 -0.78525,1.07033 -0.04935,0.22711 0.0457,0.471087 0.14197,0.68262 0.07521,0.165251 0.22769,0.283402 0.32925,0.4339 0.146248,0.216719 0.30096,0.432358 0.40201,0.67349 0.04827,0.115186 0.12053,0.240319 0.0947,0.36251 -0.05015,0.237229 -0.458339,0.326769 -0.45295,0.56918 0.0059,0.265827 0.297273,0.462486 0.52395,0.60147 0.202841,0.124369 0.468639,0.09266 0.69233,0.17374 0.611767,0.221746 1.152887,0.609468 1.75814,0.848423 0.537259,0.212111 1.076827,0.499412 1.6542,0.51611 0.597908,0.01729 1.175267,-0.240479 1.74106,-0.43457 0.296625,-0.101755 0.576394,-0.247522 0.86042,-0.38045 0.199124,-0.09319 0.46186,-0.114557 0.59125,-0.292303 0.11331,-0.155657 0.06289,-0.380065 0.0845,-0.57138 0.01726,-0.152857 -0.09926,-0.386805 0.036,-0.46008 0.247183,-0.133911 0.466879,0.338526 0.74024,0.40414 0.138294,0.03319 0.333134,0.09509 0.42649,-0.0122 0.0932,-0.107117 0.01015,-0.293323 -0.0468,-0.42339 -0.04327,-0.09881 -0.179294,-0.14156 -0.21224,-0.24427 -0.147978,-0.461329 -0.08864,-1.018343 0.13723,-1.44695 0.116836,-0.221704 0.333317,-0.539009 0.57727,-0.48165 1.056508,0.24841 0.875938,1.986062 1.30858,2.98142 0.348999,0.802923 0.521196,1.706096 1.03839,2.412493 0.454476,0.620734 1.129129,1.049547 1.74533,1.51015 0.147828,0.110499 0.49352,0.116521 0.466,0.29902 -0.0488,0.323631 -0.633434,0.165907 -0.94599,0.263 -0.675689,0.209898 -1.358163,0.40866 -2.00725,0.69026 -0.493791,0.214222 -0.890025,0.715072 -1.4267,0.756322 -0.194451,0.015 -0.362988,-0.14677 -0.55274,-0.19181 -0.366865,-0.0871 -0.744325,-0.14201 -1.12132,-0.14903 -0.37891,-0.007 -0.793139,-0.0623 -1.13181,0.10774 -0.139747,0.0702 -0.337495,0.19335 -0.31457,0.34804 0.112587,0.75967 1.261672,0.90116 1.97419,1.18769 0.262384,0.10551 0.583497,0.0446 0.82739,0.18771 0.07263,0.0426 0.197921,0.10881 0.16893,0.18789 -0.04505,0.12287 -0.278065,-0.0163 -0.38899,0.0531 -0.297138,0.18601 -0.467175,0.54434 -0.58322,0.87513 -0.06163,0.17567 0.129902,0.50319 -0.0485,0.55638 -0.07135,0.0213 -0.08019,-0.12874 -0.13808,-0.17555 -0.09123,-0.0738 -0.201618,-0.18075 -0.31607,-0.15492 -0.104597,0.0236 -0.194722,0.14483 -0.20003,0.25193 -0.01379,0.27821 0.21932,0.55005 0.45237,0.70263 0.787979,0.51589 1.854536,0.33541 2.78916,0.45174 0.498072,0.062 1.447574,-0.3682 1.50004,0.13097 0.04024,0.38285 -0.727458,0.25962 -1.10446,0.33746 -0.610347,0.12603 -1.239004,0.13601 -1.85822,0.20656 -0.681312,0.0776 -1.363696,0.14703 -2.04329,0.23848 -0.218233,0.0294 -0.476219,0.23082 -0.65305,0.0996 -0.141615,-0.10509 -0.130905,-0.35635 -0.0752,-0.52367 3.9e-5,-1.2e-4 2.57e-4,-1.4e-4 2.6e-4,-2.6e-4 z m -8.01903,-14.183385 c 0.0084,-0.181312 -0.228761,-0.393368 -0.40741,-0.36128 -0.08375,0.01504 -0.132636,0.141079 -0.12011,0.22524 0.02093,0.140645 0.15986,0.290788 0.30164,0.30164 0.09309,0.0071 0.221548,-0.07234 0.22588,-0.1656 z m 17.902739,-7.94612 c 0.0128,-0.09413 -0.16496,-0.105583 -0.25902,-0.11887 -0.26326,-0.03719 -0.78734,-0.147002 -0.78872,0.11887 -9.2e-4,0.176855 0.34694,0.0845 0.5238,0.0845 0.1769,4e-6 0.5001,0.09079 0.52394,-0.0845 z"
         id="path3" />
      <path
         style="fill:#f9f9f9;stroke-width:0.0173663"
         d="m 100.74444,98.558548 c -0.329,-0.10501 -0.46553,-0.21266 -0.63085,-0.49735 -0.501169,-0.86307 -0.493879,-2.24793 0.013,-2.4789 0.1,-0.0456 0.65397,-0.10962 1.23111,-0.14239 1.14975,-0.0653 1.6522,-0.12669 2.6588,-0.325003 0.82846,-0.16321 0.98927,-0.12245 1.19523,0.303013 0.10327,0.21332 0.13339,0.36621 0.10352,0.52543 -0.0532,0.28356 -0.3963,0.80607 -0.65956,1.00446 -0.45649,0.344 -0.5288,0.44144 -0.5288,0.71255 0,0.36915 -0.15263,0.4822 -0.73499,0.54443 -0.34891,0.0373 -0.54091,0.0966 -0.70057,0.21634 -0.20017,0.15016 -0.28974,0.16622 -0.997,0.17879 -0.42738,0.008 -0.85486,-0.011 -0.94994,-0.0414 z"
         id="path4" />
      <path
         style="fill:#f9f9f9;stroke-width:0.0173663"
         d="m 100.54461,98.427398 c -0.1714,-0.0909 -0.29977,-0.24987 -0.47194,-0.58428 -0.225139,-0.43728 -0.236499,-0.49267 -0.236499,-1.15375 0,-0.59998 0.0193,-0.72028 0.1419,-0.88468 0.168589,-0.22605 0.277259,-0.24865 1.716309,-0.35702 0.57604,-0.0434 1.48812,-0.15463 2.02685,-0.247233 0.72648,-0.12487 1.01888,-0.15041 1.13196,-0.0989 0.20345,0.0927 0.42204,0.463003 0.42156,0.714153 -5.3e-4,0.30265 -0.34397,0.84405 -0.76179,1.201 -0.31601,0.26998 -0.37682,0.36024 -0.41522,0.61637 -0.0247,0.16504 -0.0841,0.33251 -0.13187,0.37216 -0.0478,0.0396 -0.31537,0.11582 -0.59464,0.16925 -0.27926,0.0534 -0.61117,0.16019 -0.73756,0.23724 -0.19876,0.12118 -0.33944,0.14014 -1.0417,0.14035 -0.66019,2.1e-4 -0.85591,-0.0231 -1.04736,-0.12468 z"
         id="path5" />
      <path
         style="fill:#f9f9f9;stroke-width:0.0173663"
         d="m 94.835921,108.22242 c -0.62873,-0.18312 -1.45278,-0.64922 -1.45278,-0.82173 0,-0.0839 2.99609,-0.0814 3.86556,0.003 0.79567,0.0774 1.01257,0.12772 0.98257,0.22793 -0.0401,0.1341 -0.60952,0.37578 -1.29496,0.54965 -0.78903,0.20015 -1.50583,0.21413 -2.10039,0.041 z"
         id="path6" />
      <path
         style="fill:#f9f9f9;stroke-width:0.0173663"
         d="m 94.832141,108.18768 c -0.37693,-0.11805 -1.11655,-0.49636 -1.2782,-0.65377 -0.13151,-0.12808 -0.10935,-0.12975 1.68928,-0.12769 1.79418,0.002 2.76504,0.0687 2.89518,0.19888 0.0914,0.0914 -0.58046,0.3803 -1.26767,0.54506 -0.63127,0.15135 -1.6172,0.16949 -2.03859,0.0375 z"
         id="path7" />
      <path
         style="fill:#f9f9f9;stroke-width:0.0173663"
         d="m 92.092541,109.62584 c -0.4036,-0.28622 -0.89998,-0.77018 -1.18444,-1.1548 -0.19144,-0.25886 -0.22229,-0.34281 -0.16518,-0.44952 0.13086,-0.2445 0.87564,-0.75369 1.09962,-0.75178 0.0483,5.3e-4 -0.011,0.0786 -0.13178,0.17382 -0.12079,0.0952 -0.21961,0.21025 -0.21961,0.25568 0,0.0454 0.23278,0.30852 0.5173,0.58464 0.5967,0.57909 0.80811,0.9617 0.69531,1.25838 -0.0668,0.17562 -0.17415,0.29086 -0.27337,0.29339 -0.0223,5.3e-4 -0.17433,-0.0938 -0.33785,-0.20981 z"
         id="path8" />
      <path
         style="fill:#f9f9f9;stroke-width:0.0173663"
         d="m 91.891841,109.4091 c -0.45132,-0.37226 -0.93488,-0.89589 -1.0831,-1.17286 -0.0983,-0.18377 0.001,-0.32192 0.45809,-0.63726 0.28841,-0.19896 0.45126,-0.25961 0.30541,-0.11376 -0.15791,0.1579 -0.0751,0.32161 0.44807,0.88638 0.62942,0.67939 0.75765,0.92788 0.61237,1.1867 -0.0543,0.0968 -0.144,0.18478 -0.19922,0.19541 -0.0552,0.0106 -0.29895,-0.14444 -0.54162,-0.34461 z"
         id="path9" />
      <path
         style="fill:#f9f9f9;stroke-width:0.0173663"
         d="m 94.092641,112.64772 c -0.56706,-0.17934 -0.97979,-0.45176 -0.97979,-0.64672 0,-0.33034 1.60282,-0.62189 2.62236,-0.47701 0.76443,0.10863 1.02156,0.28372 0.93327,0.63549 -0.05,0.1991 -0.27868,0.28958 -0.86522,0.3423 -0.24841,0.0223 -0.57911,0.0856 -0.73489,0.14053 -0.33817,0.11932 -0.6108,0.12083 -0.97573,0.005 z"
         id="path10" />
      <path
         style="fill:#f9f9f9;stroke-width:0.0173663"
         d="m 93.889921,112.53931 c -0.18582,-0.0736 -0.42908,-0.20802 -0.54057,-0.29874 -0.16793,-0.13665 -0.18992,-0.18591 -0.12819,-0.28709 0.20406,-0.33445 1.9691,-0.54508 2.79234,-0.33323 0.5076,0.13063 0.61305,0.20274 0.61305,0.41921 0,0.23269 -0.21883,0.33732 -0.97978,0.46846 -1.03965,0.17918 -1.36879,0.18506 -1.75685,0.0314 z"
         id="path11" />
      <path
         style="fill:#f9f9f9;stroke-width:0.0173663"
         d="m 82.231711,94.283685 c -0.0943,-0.20687 -0.45493,-0.47767 -1.064408,-0.79921 -0.46097,-0.24319 -0.84545,-0.62253 -0.81134,-0.80049 0.0289,-0.151 0.43851,-0.28588 0.72925,-0.24017 0.532018,0.0836 1.035438,0.51675 1.327458,1.14204 0.19192,0.41095 0.19622,0.51355 0.0301,0.71868 l -0.12899,0.1593 z"
         id="path12" />
      <path
         style="fill:#f9f9f9;stroke-width:0.0173663"
         d="m 82.178721,94.162485 c -0.0804,-0.10869 -0.45072,-0.38481 -0.823018,-0.6136 -0.91224,-0.56059 -1.12748,-0.83852 -0.77409,-0.99954 0.26531,-0.12088 0.51256,-0.0944 0.894178,0.0958 0.3935,0.19609 0.62181,0.43792 0.86323,0.91434 0.18415,0.3634 0.21024,0.61439 0.0755,0.72622 -0.0689,0.0572 -0.1236,0.0286 -0.2358,-0.12319 z"
         id="path13" />
      <path
         style="fill:#f9f9f9;stroke-width:0.00613992"
         d="m 81.828071,95.271548 c -0.0847,-0.034 -0.15386,-0.164073 -0.13949,-0.262103 0.0168,-0.11481 0.13038,-0.21501 0.24364,-0.21501 0.12224,0 0.24808,0.12724 0.24808,0.25084 0,0.0687 -0.0181,0.10652 -0.0812,0.169623 -0.0842,0.0842 -0.16202,0.10046 -0.271,0.0567 z"
         id="path14" />
      <path
         style="fill:#f9f9f9;stroke-width:0.00613992"
         d="m 81.785971,95.218448 c -0.0421,-0.0362 -0.0669,-0.0866 -0.076,-0.154143 -0.0119,-0.0889 -0.005,-0.10861 0.0594,-0.17316 0.0995,-0.0995 0.21963,-0.1006 0.31724,-0.003 0.20163,0.20163 -0.0846,0.516103 -0.30061,0.330293 z"
         id="path15" />
      <path
         style="fill:#f9f9f9;stroke-width:0.00613992"
         d="m 86.193811,92.853125 c 0,-0.0909 0.41208,-0.39218 0.80032,-0.58521 0.4111,-0.2044 1.1035,-0.36269 1.59105,-0.36373 0.26407,-5.3e-4 0.57099,0.0254 0.57099,0.0482 0,0.0297 -0.15854,0.084 -0.76716,0.26262 -0.82453,0.24201 -1.35542,0.41137 -1.68411,0.53728 -0.32102,0.12297 -0.51109,0.16045 -0.51109,0.10079 z"
         id="path16" />
      <path
         style="fill:#f9f9f9;stroke-width:0.00613992"
         d="m 87.519711,93.224895 c 0.50565,-0.29924 0.90026,-0.44734 1.3594,-0.51021 0.19387,-0.0265 0.63541,-0.009 0.63541,0.0248 0,0.0475 -0.54798,0.24885 -1.07505,0.39498 -0.31721,0.0879 -1.12747,0.27441 -1.19193,0.27429 -0.0211,-3e-5 0.10135,-0.0828 0.27217,-0.18385 z"
         id="path17" />
      <path
         style="fill:#f9f9f9;stroke-width:0.0245596"
         d="m 110.13875,99.018958 c -0.18743,-0.20711 -0.12288,-0.40564 0.23595,-0.72571 0.11719,-0.10453 0.39633,-0.565 0.62031,-1.02326 l 0.40723,-0.8332 0.0622,0.73764 c 0.0716,0.84864 -0.04,1.56949 -0.28486,1.84003 -0.22679,0.2506 -0.81583,0.25315 -1.04085,0.005 z"
         id="path18" />
    </g>
  </g>
</svg>
